<svg version="1.1" id="sweater" xmlns="http://www.w3.org/2000/svg" xmlns:xlink="http://www.w3.org/1999/xlink" x="0px" y="0px" viewBox="0 0 1011.6 1037.1" style="enable-background:new 0 0 1011.6 1037.1;" xml:space="preserve">
<style type="text/css">
	.st0{fill:#F9F9F9;}
	.st1{fill:none;stroke:#BCBEC1;stroke-width:14;stroke-linejoin:round;stroke-miterlimit:10;}
</style>
<path id="r-sleeve" class="st0" d="M216,89.6c0,0-21.6,17.9-32.2,34.8c-10.6,16.9-21.2,59.3-43.8,140.5&#10;&#9;C83.4,468.2-5.1,831.7,8.4,942.4c2,16.2,3.7,31.9,5,45.2l0,0c59.3,2.1,115.9,3.1,144.1,3.5c0.6-3.1,1.2-6.2,1.9-9.2&#10;&#9;c7.3-35.2,24.7-40.2,31.6-91.4c0.3-2,0.5-4.1,0.8-6.2c-7.8-12.8-14.4-27.1-16.3-43.7c-9.5-82.6,12.3-233.6,19.3-400&#10;&#9;C201.8,273.9,216,89.6,216,89.6z" style="fill: #ffe9a0"/>
<path id="r-sleeve-line" class="st1" d="M216,89.6c0,0-21.6,17.9-32.2,34.8c-10.6,16.9-21.2,59.3-43.8,140.5&#10;&#9;C83.4,468.2-5.1,831.7,8.4,942.4c2,16.2,3.7,31.9,5,45.2l0,0c59.3,2.1,115.9,3.1,144.1,3.5c0.6-3.1,1.2-6.2,1.9-9.2&#10;&#9;c7.3-35.2,24.7-40.2,31.6-91.4c0.3-2,0.5-4.1,0.8-6.2c-7.8-12.8-14.4-27.1-16.3-43.7c-9.5-82.6,12.3-233.6,19.3-400&#10;&#9;C201.8,273.9,216,89.6,216,89.6z" style="stroke: #ccb66d"/>
<path id="r-bottom-sleeve" class="st0" d="M150.5,1028.9c0,0,3.3-19.2,7-37.9c-28.2-0.4-84.8-1.3-144.1-3.5c2.2,21.8,3.5,37,3.5,37&#10;&#9;s21.1,4.6,66,5.4C127.8,1030.7,150.5,1028.9,150.5,1028.9z" style="fill: #d5bdf3"/>
<path id="r-bottom-sleeve-line" class="st1" d="M150.5,1028.9c0,0,3.3-19.2,7-37.9c-28.2-0.4-84.8-1.3-144.1-3.5&#10;&#9;c2.2,21.8,3.5,37,3.5,37s21.1,4.6,66,5.4C127.8,1030.7,150.5,1028.9,150.5,1028.9z" style="stroke: #a28ac0"/>
<path id="l-sleeve" class="st0" d="M795.6,89.6c0,0,21.6,17.9,32.2,34.8c10.6,16.9,21.2,59.3,43.8,140.5&#10;&#9;c56.5,203.3,145,566.8,131.6,677.4c-2,16.2-3.7,31.9-5,45.2l0,0c-59.3,2.1-115.9,3.1-144.1,3.5c-0.6-3.1-1.2-6.2-1.9-9.2&#10;&#9;c-7.3-35.2-24.7-40.2-31.6-91.4c-0.3-2-0.5-4.1-0.8-6.2c7.8-12.8,14.4-27.1,16.3-43.7c9.5-82.4-12.3-233.4-19.3-399.8&#10;&#9;C809.8,273.9,795.6,89.6,795.6,89.6z" style="fill: #ffaa4e"/>
<path id="l-sleeve-line" class="st1" d="M795.6,89.6c0,0,21.6,17.9,32.2,34.8c10.6,16.9,21.2,59.3,43.8,140.5&#10;&#9;c56.5,203.3,145,566.8,131.6,677.4c-2,16.2-3.7,31.9-5,45.2l0,0c-59.3,2.1-115.9,3.1-144.1,3.5c-0.6-3.1-1.2-6.2-1.9-9.2&#10;&#9;c-7.3-35.2-24.7-40.2-31.6-91.4c-0.3-2-0.5-4.1-0.8-6.2c7.8-12.8,14.4-27.1,16.3-43.7c9.5-82.4-12.3-233.4-19.3-399.8&#10;&#9;C809.8,273.9,795.6,89.6,795.6,89.6z" style="stroke: #cc771b"/>
<path id="l-bottom-sleeve" class="st0" d="M861.1,1028.9c0,0-3.3-19.2-7-37.9c28.2-0.4,84.8-1.3,144.1-3.5c-2.2,21.8-3.5,37-3.5,37&#10;&#9;s-21.1,4.6-66,5.4C883.8,1030.7,861.1,1028.9,861.1,1028.9z" style="fill: #ffdd5c"/>
<path id="l-bottom-sleeve-line" class="st1" d="M861.1,1028.9c0,0-3.3-19.2-7-37.9c28.2-0.4,84.8-1.3,144.1-3.5&#10;&#9;c-2.2,21.8-3.5,37-3.5,37s-21.1,4.6-66,5.4C883.8,1030.7,861.1,1028.9,861.1,1028.9z" style="stroke: #ccaa29"/>
<path id="waist" class="st0" d="M505.8,951.8c-19.7,0.2-177.8,1.3-278.5-4.9c3.9,19.8,4.8,48.7,4.8,48.7s0.7,2.3,273.7,2.3l0,0l0,0&#10;&#9;c273,0,273.7-2.3,273.7-2.3s0.9-28.9,4.8-48.7C683.6,953.1,525.5,952,505.8,951.8z" style="fill: #7dc060"/>
<path id="waist-line" class="st1" d="M505.8,951.8c-19.7,0.2-177.8,1.3-278.5-4.9c3.9,19.8,4.8,48.7,4.8,48.7s0.7,2.3,273.7,2.3l0,0&#10;&#9;l0,0c273,0,273.7-2.3,273.7-2.3s0.9-28.9,4.8-48.7C683.6,953.1,525.5,952,505.8,951.8z" style="stroke: #4a8d2d"/>
<path id="body" class="st0" d="M505.8,951.8c19.7,0.2,177.8,1.3,278.5-4.9c0.6-3.2,1.3-6.1,2.1-8.7c8.4-27.4,44.8-54.5,49.8-97.8&#10;&#9;c9.5-82.4-12.3-233.4-19.3-399.8c-7-166.8-21.2-351.1-21.2-351.1c-8.1-7.2-38.9-22.3-71.9-33.3C696,47.1,661,35.8,643,30.9&#10;&#9;c-24,14.7-45.6,24.5-69.2,30.6c-21.4,5.8-43.6,8.5-68,8.5c-24.4,0-46.6-2.7-68-8.5c-23.6-6.1-45.2-15.9-69.2-30.6&#10;&#9;c-18,4.9-53,16.2-80.7,25.4c-33,11-63.8,26.1-71.9,33.3c0,0-14.2,184.3-21.2,351.1C187.8,607,166,758,175.5,840.4&#10;&#9;c5,43.3,41.3,70.4,49.8,97.8c0.8,2.6,1.5,5.5,2.1,8.7C328,953.1,486.1,952,505.8,951.8z" style="fill: #b4e0f8"/>
<path id="body-line" class="st1" d="M505.8,951.8c19.7,0.2,177.8,1.3,278.5-4.9c0.6-3.2,1.3-6.1,2.1-8.7&#10;&#9;c8.4-27.4,44.8-54.5,49.8-97.8c9.5-82.4-12.3-233.4-19.3-399.8c-7-166.8-21.2-351.1-21.2-351.1c-8.1-7.2-38.9-22.3-71.9-33.3&#10;&#9;C696,47.1,661,35.8,643,30.9c-24,14.7-45.6,24.5-69.2,30.6c-21.4,5.8-43.6,8.5-68,8.5c-24.4,0-46.6-2.7-68-8.5&#10;&#9;c-23.6-6.1-45.2-15.9-69.2-30.6c-18,4.9-53,16.2-80.7,25.4c-33,11-63.8,26.1-71.9,33.3c0,0-14.2,184.3-21.2,351.1&#10;&#9;C187.8,607,166,758,175.5,840.4c5,43.3,41.3,70.4,49.8,97.8c0.8,2.6,1.5,5.5,2.1,8.7C328,953.1,486.1,952,505.8,951.8z" style="stroke: #81adc5"/>
<path id="neck" class="st0" d="M505.8,70c51,0,92.6-11.8,137.2-39.1c-5.7-1.6-27.5-18.4-31-20.8c-1.7-1.2-4.7-4.8-8.9-2&#10;&#9;c-36,24.6-75.5,27.7-97.3,27.7s-61.3-3.1-97.3-27.7c-4.2-2.8-7.2,0.8-8.9,2c-3.5,2.4-25.3,19.2-31,20.8&#10;&#9;C413.2,58.1,454.7,69.9,505.8,70L505.8,70L505.8,70L505.8,70L505.8,70z" style="fill: #ffb3b3"/>
<path id="neck-line" class="st1" d="M505.8,70c51,0,92.6-11.8,137.2-39.1c-5.7-1.6-27.5-18.4-31-20.8c-1.7-1.2-4.7-4.8-8.9-2&#10;&#9;c-36,24.6-75.5,27.7-97.3,27.7s-61.3-3.1-97.3-27.7c-4.2-2.8-7.2,0.8-8.9,2c-3.5,2.4-25.3,19.2-31,20.8&#10;&#9;C413.2,58.1,454.7,69.9,505.8,70L505.8,70L505.8,70L505.8,70L505.8,70z" style="stroke: #cc8080"/>
</svg>