<svg id="t-shirt" xmlns="http://www.w3.org/2000/svg" viewBox="0 0 1094.17 997.95"><defs><style>.cls-1,.cls-3{fill:#f9f9f9;}.cls-2{fill:none;}.cls-2,.cls-3{stroke:#bcbec1;stroke-linejoin:round;stroke-width:14px;}</style></defs><path id="body" class="cls-1" d="M1044.45,757.83c-.11-226.51-4.56-425.27-4.56-425.27-9.43-13.29-38.85-22.33-71.89-33.34-27.67-9.22-62.67-20.55-80.67-25.44-24,14.72-45.6,24.5-69.19,30.63-21.45,5.79-43.7,8.48-68.14,8.48s-46.69-2.69-68.14-8.48c-23.59-6.13-45.19-15.91-69.19-30.63-18,4.89-53,16.22-80.67,25.44-33,11-62.46,20-71.89,33.34,0,0-4.45,198.76-4.56,425.27-.1,219-.1,443,.34,467.17,40.22,11.11,294.11,8.67,294.11,8.67s253.89,2.44,294.11-8.67C1044.55,1200.86,1044.55,976.84,1044.45,757.83Z" transform="translate(-202.92 -242.94)"/><path id="neck" class="cls-1" d="M856.33,253c-1.79-1.21-4.79-4.83-8.94-2-36.07,24.61-75.56,27.67-97.39,27.67s-61.32-3.06-97.39-27.67c-4.15-2.83-7.15.79-8.94,2-3.54,2.39-25.29,19.16-31,20.78,44.66,27.39,86.22,39.11,137.33,39.11s92.67-11.72,137.33-39.11C881.62,272.16,859.87,255.39,856.33,253Z" transform="translate(-202.92 -242.94)"/><path id="r-sleeve" class="cls-1" d="M460.11,332.56C457.18,336,446,347.11,428.56,368c-13,13-166.89,196.5-218.64,257.5,34.86,37.28,171.3,158.61,192,172.94,22.44-16.55,53.66-41.11,53.66-41.11h0c.08-149.15,2-286.21,3.36-362.33h0Z" transform="translate(-202.92 -242.94)"/><path id="l-sleeve" class="cls-1" d="M1071.44,368c-17.44-20.89-28.62-32-31.55-35.44l1.2,62.44h0c1.33,76.12,3.28,213.18,3.36,362.33h0s31.22,24.56,53.66,41.11c20.67-14.33,157.11-135.66,192-172.94C1238.33,564.5,1084.44,381,1071.44,368Z" transform="translate(-202.92 -242.94)"/><path id="body-line" class="cls-2" d="M1044.45,757.83c-.11-226.51-4.56-425.27-4.56-425.27-9.43-13.29-38.85-22.33-71.89-33.34-27.67-9.22-62.67-20.55-80.67-25.44-24,14.72-45.6,24.5-69.19,30.63-21.45,5.79-43.7,8.48-68.14,8.48s-46.69-2.69-68.14-8.48c-23.59-6.13-45.19-15.91-69.19-30.63-18,4.89-53,16.22-80.67,25.44-33,11-62.46,20-71.89,33.34,0,0-4.45,198.76-4.56,425.27-.1,219-.1,443,.34,467.17,40.22,11.11,294.11,8.67,294.11,8.67s253.89,2.44,294.11-8.67C1044.55,1200.86,1044.55,976.84,1044.45,757.83Z" transform="translate(-202.92 -242.94)"/><path id="neck-line" class="cls-2" d="M856.33,253c-1.79-1.21-4.79-4.83-8.94-2-36.07,24.61-75.56,27.67-97.39,27.67s-61.32-3.06-97.39-27.67c-4.15-2.83-7.15.79-8.94,2-3.54,2.39-25.29,19.16-31,20.78,44.66,27.39,86.22,39.11,137.33,39.11s92.67-11.72,137.33-39.11C881.62,272.16,859.87,255.39,856.33,253Z" transform="translate(-202.92 -242.94)"/><path id="r-sleeve-line" class="cls-3" d="M460.11,332.56C457.18,336,446,347.11,428.56,368c-13,13-166.89,196.5-218.64,257.5,34.86,37.28,171.3,158.61,192,172.94,22.44-16.55,53.66-41.11,53.66-41.11h0c.08-149.15,2-286.21,3.36-362.33h0Z" transform="translate(-202.92 -242.94)"/><path id="l-sleeve-line" class="cls-2" d="M1071.44,368c-17.44-20.89-28.62-32-31.55-35.44l1.2,62.44h0c1.33,76.12,3.28,213.18,3.36,362.33h0s31.22,24.56,53.66,41.11c20.67-14.33,157.11-135.66,192-172.94C1238.33,564.5,1084.44,381,1071.44,368Z" transform="translate(-202.92 -242.94)"/></svg>