<?xml version="1.0" encoding="utf-8"?>
<!-- Generator: Adobe Illustrator 25.4.1, SVG Export Plug-In . SVG Version: 6.00 Build 0)  -->
<svg version="1.1" id="t-shirt" xmlns="http://www.w3.org/2000/svg" xmlns:xlink="http://www.w3.org/1999/xlink" x="0px" y="0px"
	 viewBox="0 0 1094.2 998" style="enable-background:new 0 0 1094.2 998;" xml:space="preserve">
<style type="text/css">
	.st0{fill:#F9F9F9;}
	.st1{fill:none;stroke:#BCBEC1;stroke-width:14;stroke-linejoin:round;}
</style>
<path id="r-sleeve" class="st0" d="M257.2,89.6c-2.9,3.4-14.1,14.5-31.6,35.4C212.6,138,58.7,321.5,7,382.5
	c34.9,37.3,171.3,158.6,192,172.9c22.4-16.5,53.7-41.1,53.7-41.1l0,0c0.1-149.1,2-286.2,3.4-362.3l0,0L257.2,89.6z"/>
<path id="r-sleeve-line" class="st1" d="M257.2,89.6c-2.9,3.4-14.1,14.5-31.6,35.4C212.6,138,58.7,321.5,7,382.5
	c34.9,37.3,171.3,158.6,192,172.9c22.4-16.5,53.7-41.1,53.7-41.1l0,0c0.1-149.1,2-286.2,3.4-362.3l0,0L257.2,89.6z"/>
<path id="l-sleeve" class="st0" d="M868.5,125.1c-17.4-20.9-28.6-32-31.6-35.4l1.2,62.4l0,0c1.3,76.1,3.3,213.2,3.4,362.3l0,0
	c0,0,31.2,24.6,53.7,41.1c20.7-14.3,157.1-135.7,192-172.9C1035.4,321.6,881.5,138.1,868.5,125.1z"/>
<path id="l-sleeve-line" class="st1" d="M868.5,125.1c-17.4-20.9-28.6-32-31.6-35.4l1.2,62.4l0,0c1.3,76.1,3.3,213.2,3.4,362.3l0,0
	c0,0,31.2,24.6,53.7,41.1c20.7-14.3,157.1-135.7,192-172.9C1035.4,321.6,881.5,138.1,868.5,125.1z"/>
<path id="body" class="st0" d="M841.5,514.9C841.4,288.4,837,89.6,837,89.6c-9.4-13.3-38.8-22.3-71.9-33.3
	c-27.7-9.2-62.7-20.5-80.7-25.4c-24,14.7-45.6,24.5-69.2,30.6c-21.5,5.8-43.7,8.5-68.1,8.5s-46.7-2.7-68.1-8.5
	c-23.6-6.1-45.2-15.9-69.2-30.6c-18,4.9-53,16.2-80.7,25.4c-33,11-62.5,20-71.9,33.3c0,0-4.5,198.8-4.6,425.3
	c-0.1,219-0.1,443,0.3,467.2c40.2,11.1,294.1,8.7,294.1,8.7s253.9,2.4,294.1-8.7C841.6,957.9,841.6,733.9,841.5,514.9z"/>
<path id="body-line" class="st1" d="M841.5,514.9C841.4,288.4,837,89.6,837,89.6c-9.4-13.3-38.8-22.3-71.9-33.3
	c-27.7-9.2-62.7-20.5-80.7-25.4c-24,14.7-45.6,24.5-69.2,30.6c-21.5,5.8-43.7,8.5-68.1,8.5s-46.7-2.7-68.1-8.5
	c-23.6-6.1-45.2-15.9-69.2-30.6c-18,4.9-53,16.2-80.7,25.4c-33,11-62.5,20-71.9,33.3c0,0-4.5,198.8-4.6,425.3
	c-0.1,219-0.1,443,0.3,467.2c40.2,11.1,294.1,8.7,294.1,8.7s253.9,2.4,294.1-8.7C841.6,957.9,841.6,733.9,841.5,514.9z"/>
<path id="neck" class="st0" d="M653.4,10.1c-1.8-1.2-4.8-4.8-8.9-2c-36.1,24.6-75.6,27.7-97.4,27.7s-61.3-3.1-97.4-27.7
	c-4.2-2.8-7.2,0.8-8.9,2c-3.5,2.4-25.3,19.2-31,20.8C454.4,58.2,496,70,547.1,70s92.7-11.7,137.3-39.1
	C678.7,29.2,657,12.4,653.4,10.1z"/>
<path id="neck-line" class="st1" d="M653.4,10.1c-1.8-1.2-4.8-4.8-8.9-2c-36.1,24.6-75.6,27.7-97.4,27.7s-61.3-3.1-97.4-27.7
	c-4.2-2.8-7.2,0.8-8.9,2c-3.5,2.4-25.3,19.2-31,20.8C454.4,58.2,496,70,547.1,70s92.7-11.7,137.3-39.1
	C678.7,29.2,657,12.4,653.4,10.1z"/>
</svg>
